<svg width="40" height="40" viewBox="0 0 40 40" fill="none" xmlns="http://www.w3.org/2000/svg">
<path d="M5.71429 0C2.56965 0 0 2.56965 0 5.71429C0 8.85892 2.56965 11.4286 5.71429 11.4286C8.85892 11.4286 11.4286 8.85892 11.4286 5.71429C11.4286 2.56965 8.85892 0 5.71429 0ZM20 0C16.8554 0 14.2857 2.56965 14.2857 5.71429C14.2857 8.85892 16.8554 11.4286 20 11.4286C23.1446 11.4286 25.7143 8.85892 25.7143 5.71429C25.7143 2.56965 23.1446 0 20 0ZM34.2857 0C31.1411 0 28.5714 2.56965 28.5714 5.71429C28.5714 8.85892 31.1411 11.4286 34.2857 11.4286C37.4303 11.4286 40 8.85892 40 5.71429C40 2.56965 37.4303 0 34.2857 0ZM20 1.90476C22.1152 1.90476 23.8095 3.59906 23.8095 5.71429C23.8095 7.82951 22.1152 9.52381 20 9.52381C17.8848 9.52381 16.1905 7.82951 16.1905 5.71429C16.1905 3.59906 17.8848 1.90476 20 1.90476ZM34.2857 1.90476C36.4009 1.90476 38.0952 3.59906 38.0952 5.71429C38.0952 7.82951 36.4009 9.52381 34.2857 9.52381C32.1705 9.52381 30.4762 7.82951 30.4762 5.71429C30.4762 3.59906 32.1705 1.90476 34.2857 1.90476ZM5.71429 14.2857C2.56965 14.2857 0 16.8554 0 20C0 23.1446 2.56965 25.7143 5.71429 25.7143C8.85892 25.7143 11.4286 23.1446 11.4286 20C11.4286 16.8554 8.85892 14.2857 5.71429 14.2857ZM20 14.2857C16.8554 14.2857 14.2857 16.8554 14.2857 20C14.2857 23.1446 16.8554 25.7143 20 25.7143C23.1446 25.7143 25.7143 23.1446 25.7143 20C25.7143 16.8554 23.1446 14.2857 20 14.2857ZM34.2857 14.2857C31.1411 14.2857 28.5714 16.8554 28.5714 20C28.5714 23.1446 31.1411 25.7143 34.2857 25.7143C37.4303 25.7143 40 23.1446 40 20C40 16.8554 37.4303 14.2857 34.2857 14.2857ZM5.71429 16.1905C7.82951 16.1905 9.52381 17.8848 9.52381 20C9.52381 22.1152 7.82951 23.8095 5.71429 23.8095C3.59906 23.8095 1.90476 22.1152 1.90476 20C1.90476 17.8848 3.59906 16.1905 5.71429 16.1905ZM34.2857 16.1905C36.4009 16.1905 38.0952 17.8848 38.0952 20C38.0952 22.1152 36.4009 23.8095 34.2857 23.8095C32.1705 23.8095 30.4762 22.1152 30.4762 20C30.4762 17.8848 32.1705 16.1905 34.2857 16.1905ZM5.71429 28.5714C2.56965 28.5714 0 31.1411 0 34.2857C0 37.4303 2.56965 40 5.71429 40C8.85892 40 11.4286 37.4303 11.4286 34.2857C11.4286 31.1411 8.85892 28.5714 5.71429 28.5714ZM20 28.5714C16.8554 28.5714 14.2857 31.1411 14.2857 34.2857C14.2857 37.4303 16.8554 40 20 40C23.1446 40 25.7143 37.4303 25.7143 34.2857C25.7143 31.1411 23.1446 28.5714 20 28.5714ZM34.2857 28.5714C31.1411 28.5714 28.5714 31.1411 28.5714 34.2857C28.5714 37.4303 31.1411 40 34.2857 40C37.4303 40 40 37.4303 40 34.2857C40 31.1411 37.4303 28.5714 34.2857 28.5714ZM5.71429 30.4762C7.82951 30.4762 9.52381 32.1705 9.52381 34.2857C9.52381 36.4009 7.82951 38.0952 5.71429 38.0952C3.59906 38.0952 1.90476 36.4009 1.90476 34.2857C1.90476 32.1705 3.59906 30.4762 5.71429 30.4762ZM20 30.4762C22.1152 30.4762 23.8095 32.1705 23.8095 34.2857C23.8095 36.4009 22.1152 38.0952 20 38.0952C17.8848 38.0952 16.1905 36.4009 16.1905 34.2857C16.1905 32.1705 17.8848 30.4762 20 30.4762Z" fill="#555555"/>
</svg>
