<svg width="32" height="32" viewBox="0 0 32 32" fill="none" xmlns="http://www.w3.org/2000/svg">
<path opacity="0.75" d="M32 16C32 17.3662 30.3262 18.4615 29.9815 19.7538C29.6369 21.0462 30.5231 22.8677 29.8585 24C29.1938 25.1323 27.1754 25.2923 26.24 26.24C25.3046 27.1877 25.1569 29.1938 24 29.8585C22.8431 30.5231 21.0462 29.6369 19.7538 29.9815C18.4615 30.3262 17.3662 32 16 32C14.6338 32 13.5385 30.3262 12.3077 29.9815C11.0769 29.6369 9.19385 30.5231 8.06154 29.8585C6.92923 29.1938 6.76923 27.1754 5.82154 26.24C4.87385 25.3046 2.86769 25.1569 2.20308 24C1.53846 22.8431 2.42462 21.0462 2.08 19.7538C1.73538 18.4615 0 17.3662 0 16C0 14.6338 1.67385 13.5385 2.01846 12.3077C2.36308 11.0769 1.47692 9.19385 2.14154 8.06154C2.80615 6.92923 4.82462 6.70769 5.76 5.76C6.69538 4.81231 6.84308 2.80615 8 2.14154C9.15692 1.47692 10.9538 2.36308 12.2462 2.01846C13.5385 1.67385 14.6338 0 16 0C17.3662 0 18.4615 1.67385 19.7538 2.01846C21.0462 2.36308 22.8677 1.47692 24 2.14154C25.1323 2.80615 25.2923 4.82462 26.24 5.76C27.1877 6.69538 29.1938 6.84308 29.8585 8C30.5231 9.15692 29.6369 10.9538 29.9815 12.2462C30.3262 13.5385 32 14.6338 32 16Z" fill="#FAA94D"/>
<path d="M16 26.625C21.868 26.625 26.625 21.868 26.625 16C26.625 10.132 21.868 5.375 16 5.375C10.132 5.375 5.375 10.132 5.375 16C5.375 21.868 10.132 26.625 16 26.625Z" fill="#E46D38"/>
<path d="M12.7464 21H10.7776L14.3621 10.8182H16.6391L20.2286 21H18.2599L15.5404 12.9062H15.4608L12.7464 21ZM12.811 17.0078H18.1803V18.4893H12.811V17.0078Z" fill="white"/>
</svg>
