<svg width="32" height="33" viewBox="0 0 32 33" fill="none" xmlns="http://www.w3.org/2000/svg">
<path d="M31.6964 17.9806C32.1012 17.1787 32.1012 16.2213 31.6964 15.4194L31.2771 14.589C31.1857 14.408 31.1538 14.2065 31.1847 14.006L31.3268 13.0867C31.4641 12.199 31.1682 11.2885 30.5354 10.651L29.8801 9.9908C29.7373 9.84685 29.6446 9.66496 29.6121 9.46476L29.4632 8.54655C29.321 7.66973 28.7691 6.90254 27.9844 6.48845L27.1782 6.01297C27.1625 6.00378 27.1467 5.99503 27.1306 5.98678C26.9503 5.89409 26.806 5.74976 26.7133 5.56937L26.2878 4.74218C25.8867 3.96212 25.0689 3.38526 24.1534 3.23674L23.2352 3.08786C23.035 3.05535 22.8531 2.96272 22.7092 2.8199L22.049 2.16453C21.4115 1.53173 20.5011 1.23608 19.6133 1.37309L18.694 1.51517C18.4935 1.54617 18.2919 1.51423 18.1109 1.42284L17.2805 1.00362C16.4787 0.59884 15.5213 0.598777 14.7195 1.00362L13.8891 1.42284C13.7081 1.51416 13.5066 1.54604 13.306 1.51523L12.3868 1.37315C11.4989 1.23583 10.5885 1.53179 9.951 2.16459L9.29076 2.81983C9.14688 2.96272 8.96499 3.05535 8.76478 3.08786L7.84652 3.23674C6.93107 3.38526 6.11319 3.96205 5.71209 4.74218L5.28675 5.56937C5.19399 5.7497 5.04966 5.89409 4.86927 5.98678L4.04202 6.41219C3.26196 6.81329 2.6851 7.63117 2.53665 8.54662L2.3877 9.46488C2.35526 9.66508 2.26256 9.84691 2.11967 9.99086L1.4645 10.651C0.831693 11.2885 0.535856 12.199 0.673055 13.0867L0.815192 14.0061C0.846194 14.2065 0.814254 14.408 0.722809 14.589L0.303587 15.4194C-0.101196 16.2212 -0.101196 17.1786 0.303587 17.9805L0.722809 18.8109C0.814192 18.9919 0.846132 19.1935 0.815192 19.3939L0.673055 20.3133C0.535856 21.201 0.831756 22.1115 1.4645 22.749L2.1198 23.4092C2.26269 23.5532 2.35538 23.735 2.38782 23.9353L2.53677 24.8534C2.68522 25.7689 3.26208 26.5868 4.04214 26.9879L4.86934 27.4132C5.04973 27.506 5.19405 27.6503 5.28681 27.8307L5.71216 28.658C6.11331 29.438 6.93119 30.0149 7.84664 30.1633L8.76484 30.3123C8.96505 30.3448 9.14694 30.4374 9.29082 30.5802L9.95107 31.2356C10.5887 31.8684 11.4991 32.1641 12.3868 32.027L13.3061 31.8848C13.5064 31.8538 13.7081 31.8858 13.8891 31.9772L14.7195 32.3964C15.1204 32.5988 15.5602 32.7 16 32.7C16.4398 32.7 16.8796 32.5988 17.2805 32.3964L18.1109 31.9772C18.2919 31.8858 18.4936 31.854 18.694 31.8848L19.6132 32.0269C20.5009 32.1641 21.4114 31.8683 22.049 31.2355L22.7092 30.5802C22.8531 30.4373 23.035 30.3447 23.2352 30.3122L24.1534 30.1632C25.0302 30.021 25.7974 29.4691 26.2115 28.6843L26.687 27.8781C26.6962 27.8625 26.7049 27.8467 26.7132 27.8306C26.8059 27.6502 26.9503 27.5059 27.1306 27.4132L27.9578 26.9878C28.7566 26.5771 29.3194 25.8025 29.4632 24.9158L29.6121 23.9977C29.6446 23.7975 29.7373 23.6156 29.8801 23.4717C29.8901 23.4617 30.5518 22.7323 30.5518 22.7323C31.1733 22.0957 31.4629 21.1932 31.3268 20.3133L31.1847 19.394C31.1537 19.1936 31.1857 18.9919 31.2771 18.8109L31.6964 17.9806Z" fill="#8DC48B"/>
<path d="M16 27.325C21.868 27.325 26.625 22.568 26.625 16.7C26.625 10.832 21.868 6.07501 16 6.07501C10.132 6.07501 5.375 10.832 5.375 16.7C5.375 22.568 10.132 27.325 16 27.325Z" fill="#567855"/>
<path d="M18.6943 21.7416C19.071 21.4537 19.3843 21.0939 19.6129 20.6621C19.8415 20.2304 19.9558 19.7266 19.96 19.1552C19.96 18.1604 19.6171 17.3519 18.9398 16.7593C18.2795 16.1751 17.399 15.8237 16.3026 15.7179C15.6507 15.6417 15.147 15.5105 14.821 15.3285C14.5078 15.1549 14.2961 14.956 14.1903 14.7443C14.076 14.5157 14.021 14.2702 14.021 14.0289C14.021 13.5591 14.1988 13.2246 14.5628 12.9876C14.9607 12.7294 15.4602 12.6066 16.0698 12.6151C16.6413 12.6235 17.09 12.7378 17.4074 12.9495C17.6191 13.0934 17.8011 13.267 17.962 13.4744C17.962 13.4744 18.3176 13.9062 18.6985 13.8681C19.1007 13.83 19.5959 13.4744 19.5959 12.9791C19.5959 12.7886 19.5409 12.6108 19.4436 12.4754C19.4224 12.4415 19.3885 12.4119 19.3674 12.3823C19.215 12.1748 19.0456 11.9844 18.8636 11.8108C18.5377 11.506 18.144 11.2647 17.6868 11.0954C17.4836 11.0192 17.2593 10.96 17.018 10.9219V10.2996C17.018 9.75776 16.5778 9.32599 16.0444 9.32599C15.511 9.32599 15.0793 9.75776 15.0793 10.2911V10.9388C14.7448 10.9981 14.4316 11.0954 14.1268 11.2182C13.5173 11.4595 13.0305 11.8235 12.6664 12.2891C12.3024 12.7675 12.1119 13.3474 12.1119 14.0078C12.1119 14.6173 12.2685 15.1719 12.5817 15.6502C12.8908 16.1285 13.3479 16.5264 13.9194 16.8228C14.4824 17.1191 15.1512 17.3096 15.8962 17.3858C16.6751 17.4789 17.2297 17.6905 17.5556 18.0334C17.8731 18.3763 18.0339 18.7488 18.0339 19.1806C18.0339 19.515 17.9408 19.7901 17.7588 20.0187C17.5598 20.2515 17.3101 20.4336 17.0053 20.5648C16.6836 20.696 16.3407 20.7637 15.9767 20.7637C15.384 20.7637 14.8464 20.6664 14.3808 20.459C14.0633 20.3235 13.8855 20.1626 13.5681 19.9044C13.5681 19.9044 13.2548 19.6377 12.9289 19.6377C12.4421 19.6293 12.0399 20.0399 12.0399 20.5352C12.0399 20.878 12.1711 21.0389 12.2685 21.1362C12.2685 21.1362 12.5183 21.4326 12.7087 21.5638C13.149 21.877 13.6358 22.1564 14.1988 22.3257C14.4824 22.4104 14.7787 22.4697 15.075 22.5162V23.1004C15.075 23.6422 15.5153 24.074 16.0486 24.074C16.582 24.074 17.0138 23.6422 17.0138 23.1089V22.4697C17.1492 22.4485 17.2847 22.4104 17.4159 22.3723C17.89 22.2284 18.3133 22.021 18.6943 21.7416Z" fill="white"/>
</svg>
