<svg width="48" height="48" viewBox="0 0 48 48" fill="none" xmlns="http://www.w3.org/2000/svg">
<path d="M48 24C48 26.0492 45.4892 27.6923 44.9723 29.6308C44.4554 31.5692 45.7846 34.3015 44.7877 36C43.7908 37.6985 40.7631 37.9385 39.36 39.36C37.9569 40.7815 37.7354 43.7908 36 44.7877C34.2646 45.7846 31.5692 44.4554 29.6308 44.9723C27.6923 45.4892 26.0492 48 24 48C21.9508 48 20.3077 45.4892 18.4615 44.9723C16.6154 44.4554 13.7908 45.7846 12.0923 44.7877C10.3938 43.7908 10.1538 40.7631 8.73231 39.36C7.31077 37.9569 4.30154 37.7354 3.30462 36C2.30769 34.2646 3.63692 31.5692 3.12 29.6308C2.60308 27.6923 0 26.0492 0 24C0 21.9508 2.51077 20.3077 3.02769 18.4615C3.54462 16.6154 2.21538 13.7908 3.21231 12.0923C4.20923 10.3938 7.23692 10.0615 8.64 8.64C10.0431 7.21846 10.2646 4.20923 12 3.21231C13.7354 2.21538 16.4308 3.54462 18.3692 3.02769C20.3077 2.51077 21.9508 0 24 0C26.0492 0 27.6923 2.51077 29.6308 3.02769C31.5692 3.54462 34.3015 2.21538 36 3.21231C37.6985 4.20923 37.9385 7.23692 39.36 8.64C40.7815 10.0431 43.7908 10.2646 44.7877 12C45.7846 13.7354 44.4554 16.4308 44.9723 18.3692C45.4892 20.3077 48 21.9508 48 24Z" fill="#4691AE"/>
<path d="M24 39.9375C32.802 39.9375 39.9375 32.802 39.9375 24C39.9375 15.198 32.802 8.0625 24 8.0625C15.198 8.0625 8.0625 15.198 8.0625 24C8.0625 32.802 15.198 39.9375 24 39.9375Z" fill="#275061"/>
<path d="M22.369 28.4438C22.1842 28.4447 22.0011 28.4086 21.8305 28.3378C21.6598 28.2669 21.5051 28.1627 21.3752 28.0313L17.0065 23.7375C16.7431 23.4739 16.5952 23.1164 16.5952 22.7438C16.5952 22.3711 16.7431 22.0137 17.0065 21.75C17.2702 21.4867 17.6276 21.3388 18.0002 21.3388C18.3729 21.3388 18.7303 21.4867 18.994 21.75L22.369 25.0875L29.0065 18.5438C29.2725 18.2802 29.6324 18.1331 30.0069 18.1349C30.3813 18.1367 30.7398 18.2871 31.0034 18.5532C31.2669 18.8192 31.414 19.179 31.4122 19.5535C31.4105 19.928 31.26 20.2865 30.994 20.55L23.344 28.05C23.2174 28.1793 23.0654 28.2811 22.8976 28.3488C22.7298 28.4166 22.5499 28.4489 22.369 28.4438Z" fill="#EDEBEA"/>
</svg>
