<svg width="33" height="33" viewBox="0 0 33 33" fill="none" xmlns="http://www.w3.org/2000/svg">
<g opacity="0.5">
<path d="M31.9319 17.7618C32.3367 16.9599 32.3367 16.0026 31.9319 15.2007L31.5127 14.3703C31.4213 14.1893 31.3893 13.9877 31.4203 13.7873L31.5624 12.868C31.6996 11.9803 31.4038 11.0697 30.7709 10.4322L30.1157 9.77205C29.9728 9.6281 29.8801 9.44621 29.8477 9.24601L29.6988 8.3278C29.5565 7.45098 29.0046 6.68379 28.2199 6.2697L27.4137 5.79422C27.3981 5.78503 27.3823 5.77628 27.3661 5.76803C27.1858 5.67534 27.0415 5.53101 26.9488 5.35062L26.5234 4.52343C26.1223 3.74337 25.3044 3.16651 24.3889 3.01799L23.4708 2.86911C23.2705 2.8366 23.0887 2.74397 22.9447 2.60115L22.2845 1.94578C21.647 1.31298 20.7367 1.01733 19.8488 1.15434L18.9296 1.29642C18.729 1.32742 18.5275 1.29548 18.3465 1.20409L17.5161 0.784873C16.7143 0.38009 15.7569 0.380027 14.9551 0.784873L14.1246 1.20409C13.9437 1.29541 13.7421 1.32729 13.5416 1.29648L12.6223 1.1544C11.7344 1.01708 10.824 1.31304 10.1865 1.94584L9.5263 2.60108C9.38241 2.74397 9.20052 2.8366 9.00032 2.86911L8.08205 3.01799C7.1666 3.16651 6.34872 3.7433 5.94763 4.52343L5.52228 5.35062C5.42952 5.53095 5.2852 5.67534 5.10481 5.76803L4.27755 6.19344C3.49749 6.59454 2.92063 7.41242 2.77218 8.32787L2.62323 9.24613C2.59079 9.44633 2.4981 9.62816 2.35521 9.77211L1.70003 10.4323C1.06723 11.0698 0.771391 11.9803 0.90859 12.868L1.05073 13.7873C1.08173 13.9877 1.04979 14.1893 0.958344 14.3703L0.539122 15.2007C0.134339 16.0025 0.134339 16.9599 0.539122 17.7618L0.958344 18.5921C1.04973 18.7732 1.08167 18.9747 1.05073 19.1752L0.90859 20.0945C0.771391 20.9822 1.06729 21.8927 1.70003 22.5302L2.35533 23.1905C2.49822 23.3344 2.59092 23.5162 2.62336 23.7165L2.77231 24.6346C2.92075 25.5502 3.49761 26.368 4.27768 26.7691L5.10487 27.1945C5.28526 27.2872 5.42959 27.4316 5.52234 27.6119L5.94769 28.4392C6.34885 29.2193 7.16673 29.7961 8.08218 29.9446L9.00038 30.0935C9.20058 30.126 9.38247 30.2187 9.52636 30.3615L10.1866 31.0169C10.8242 31.6497 11.7347 31.9453 12.6223 31.8082L13.5416 31.6661C13.742 31.6351 13.9437 31.6671 14.1246 31.7585L14.9551 32.1777C15.356 32.3801 15.7957 32.4813 16.2355 32.4813C16.6754 32.4813 17.1152 32.3801 17.5161 32.1777L18.3465 31.7585C18.5275 31.6671 18.7292 31.6352 18.9295 31.6661L19.8488 31.8082C20.7365 31.9453 21.647 31.6495 22.2845 31.0167L22.9447 30.3614C23.0886 30.2185 23.2705 30.1259 23.4708 30.0934L24.3889 29.9445C25.2657 29.8023 26.033 29.2504 26.4471 28.4656L26.9225 27.6594C26.9317 27.6438 26.9405 27.6279 26.9487 27.6118C27.0414 27.4315 27.1858 27.2872 27.3661 27.1944L28.1933 26.7691C28.9921 26.3583 29.5549 25.5838 29.6988 24.6971L29.8477 23.7789C29.8802 23.5787 29.9728 23.3969 30.1157 23.2529C30.1256 23.2429 30.7874 22.5136 30.7874 22.5136C31.4088 21.8769 31.6984 20.9745 31.5624 20.0945L31.4203 19.1753C31.3893 18.9748 31.4212 18.7732 31.5126 18.5921L31.9319 17.7618Z" fill="#8DC48B"/>
<path d="M16.2355 27.1063C22.1036 27.1063 26.8605 22.3493 26.8605 16.4813C26.8605 10.6132 22.1036 5.85626 16.2355 5.85626C10.3675 5.85626 5.61053 10.6132 5.61053 16.4813C5.61053 22.3493 10.3675 27.1063 16.2355 27.1063Z" fill="#567855"/>
<path d="M21.2272 20.4754C21.2272 20.2112 21.1227 19.9578 20.9364 19.7704L17.8264 16.6604C17.8025 16.638 17.7834 16.6109 17.7704 16.5808C17.7574 16.5507 17.7506 16.5182 17.7506 16.4854C17.7506 16.4526 17.7574 16.4202 17.7704 16.3901C17.7834 16.36 17.8025 16.3329 17.8264 16.3104L20.9364 13.2004C21.0296 13.1072 21.1036 12.9965 21.1541 12.8747C21.2045 12.7528 21.2305 12.6223 21.2305 12.4904C21.2305 12.3586 21.2045 12.228 21.1541 12.1062C21.1036 11.9843 21.0296 11.8737 20.9364 11.7804C20.8432 11.6872 20.7325 11.6132 20.6106 11.5628C20.4888 11.5123 20.3583 11.4863 20.2264 11.4863C20.0945 11.4863 19.964 11.5123 19.8421 11.5628C19.7203 11.6132 19.6096 11.6872 19.5164 11.7804L16.4064 14.8904C16.384 14.9143 16.3569 14.9334 16.3268 14.9464C16.2967 14.9595 16.2642 14.9662 16.2314 14.9662C16.1986 14.9662 16.1662 14.9595 16.1361 14.9464C16.106 14.9334 16.0788 14.9143 16.0564 14.8904L12.9464 11.7804C12.759 11.5942 12.5056 11.4896 12.2414 11.4896C11.9772 11.4896 11.7238 11.5942 11.5364 11.7804C11.4427 11.8734 11.3683 11.984 11.3175 12.1058C11.2667 12.2277 11.2406 12.3584 11.2406 12.4904C11.2406 12.6224 11.2667 12.7531 11.3175 12.875C11.3683 12.9969 11.4427 13.1075 11.5364 13.2004L14.6464 16.3104C14.69 16.3583 14.7141 16.4207 14.7141 16.4854C14.7141 16.5501 14.69 16.6126 14.6464 16.6604L11.5364 19.7704C11.3726 19.9617 11.287 20.2078 11.2967 20.4595C11.3064 20.7111 11.4107 20.9499 11.5888 21.128C11.7669 21.3061 12.0057 21.4104 12.2573 21.4201C12.509 21.4298 12.7551 21.3442 12.9464 21.1804L16.0564 18.0704C16.1043 18.0269 16.1667 18.0027 16.2314 18.0027C16.2961 18.0027 16.3585 18.0269 16.4064 18.0704L19.5164 21.1804C19.6094 21.2741 19.72 21.3485 19.8418 21.3993C19.9637 21.4501 20.0944 21.4762 20.2264 21.4762C20.3584 21.4762 20.4891 21.4501 20.611 21.3993C20.7328 21.3485 20.8434 21.2741 20.9364 21.1804C21.1227 20.9931 21.2272 20.7396 21.2272 20.4754Z" fill="white"/>
</g>
</svg>
