<svg width="32" height="33" viewBox="0 0 32 33" fill="none" xmlns="http://www.w3.org/2000/svg">
<g opacity="0.5">
<path d="M32 16.7C32 18.0662 30.3262 19.1616 29.9815 20.4539C29.6369 21.7462 30.5231 23.5677 29.8585 24.7C29.1938 25.8323 27.1754 25.9923 26.24 26.94C25.3046 27.8877 25.1569 29.8939 24 30.5585C22.8431 31.2231 21.0462 30.3369 19.7538 30.6816C18.4615 31.0262 17.3662 32.7 16 32.7C14.6338 32.7 13.5385 31.0262 12.3077 30.6816C11.0769 30.3369 9.19385 31.2231 8.06154 30.5585C6.92923 29.8939 6.76923 27.8754 5.82154 26.94C4.87385 26.0046 2.86769 25.8569 2.20308 24.7C1.53846 23.5431 2.42462 21.7462 2.08 20.4539C1.73538 19.1616 0 18.0662 0 16.7C0 15.3339 1.67385 14.2385 2.01846 13.0077C2.36308 11.7769 1.47692 9.89386 2.14154 8.76155C2.80615 7.62924 4.82462 7.4077 5.76 6.46001C6.69538 5.51232 6.84308 3.50617 8 2.84155C9.15692 2.17694 10.9538 3.06309 12.2462 2.71847C13.5385 2.37386 14.6338 0.700012 16 0.700012C17.3662 0.700012 18.4615 2.37386 19.7538 2.71847C21.0462 3.06309 22.8677 2.17694 24 2.84155C25.1323 3.50617 25.2923 5.52463 26.24 6.46001C27.1877 7.3954 29.1938 7.54309 29.8585 8.70001C30.5231 9.85694 29.6369 11.6539 29.9815 12.9462C30.3262 14.2385 32 15.3339 32 16.7Z" fill="#4691AE"/>
<path d="M16 27.325C21.868 27.325 26.625 22.568 26.625 16.7C26.625 10.832 21.868 6.07501 16 6.07501C10.132 6.07501 5.375 10.832 5.375 16.7C5.375 22.568 10.132 27.325 16 27.325Z" fill="#275061"/>
<path d="M14.96 21L11.504 12.54H13.07L15.752 19.47L18.434 12.54H20L16.544 21H14.96Z" fill="white"/>
</g>
</svg>
