<svg width="33" height="33" viewBox="0 0 33 33" fill="none" xmlns="http://www.w3.org/2000/svg">
<g opacity="0.5">
<path d="M32.3674 16.7C32.3674 18.0662 30.6936 19.1616 30.349 20.4539C30.0044 21.7462 30.8905 23.5677 30.2259 24.7C29.5613 25.8323 27.5428 25.9923 26.6074 26.94C25.672 27.8877 25.5244 29.8939 24.3674 30.5585C23.2105 31.2231 21.4136 30.3369 20.1213 30.6816C18.829 31.0262 17.7336 32.7 16.3674 32.7C15.0013 32.7 13.9059 31.0262 12.6751 30.6816C11.4444 30.3369 9.56128 31.2231 8.42897 30.5585C7.29666 29.8939 7.13666 27.8754 6.18897 26.94C5.24128 26.0046 3.23512 25.8569 2.57051 24.7C1.90589 23.5431 2.79205 21.7462 2.44743 20.4539C2.10282 19.1616 0.367432 18.0662 0.367432 16.7C0.367432 15.3339 2.04128 14.2385 2.38589 13.0077C2.73051 11.7769 1.84435 9.89386 2.50897 8.76155C3.17359 7.62924 5.19205 7.4077 6.12743 6.46001C7.06282 5.51232 7.21051 3.50617 8.36743 2.84155C9.52435 2.17694 11.3213 3.06309 12.6136 2.71847C13.9059 2.37386 15.0013 0.700012 16.3674 0.700012C17.7336 0.700012 18.829 2.37386 20.1213 2.71847C21.4136 3.06309 23.2351 2.17694 24.3674 2.84155C25.4997 3.50617 25.6597 5.52463 26.6074 6.46001C27.5551 7.3954 29.5613 7.54309 30.2259 8.70001C30.8905 9.85694 30.0044 11.6539 30.349 12.9462C30.6936 14.2385 32.3674 15.3339 32.3674 16.7Z" fill="#4691AE"/>
<path d="M16.3674 27.325C22.2355 27.325 26.9924 22.568 26.9924 16.7C26.9924 10.832 22.2355 6.07501 16.3674 6.07501C10.4994 6.07501 5.74243 10.832 5.74243 16.7C5.74243 22.568 10.4994 27.325 16.3674 27.325Z" fill="#275061"/>
<circle cx="16.3674" cy="16.7" r="2" fill="white"/>
</g>
</svg>
