<svg width="33" height="33" viewBox="0 0 33 33" fill="none" xmlns="http://www.w3.org/2000/svg">
<path d="M32.2449 16.7C32.2449 18.0662 30.5711 19.1616 30.2265 20.4539C29.8819 21.7462 30.768 23.5677 30.1034 24.7C29.4388 25.8323 27.4203 25.9923 26.4849 26.94C25.5495 27.8877 25.4019 29.8939 24.2449 30.5585C23.088 31.2231 21.2911 30.3369 19.9988 30.6816C18.7065 31.0262 17.6111 32.7 16.2449 32.7C14.8788 32.7 13.7834 31.0262 12.5526 30.6816C11.3219 30.3369 9.43878 31.2231 8.30647 30.5585C7.17417 29.8939 7.01416 27.8754 6.06647 26.94C5.11878 26.0046 3.11263 25.8569 2.44801 24.7C1.7834 23.5431 2.66955 21.7462 2.32493 20.4539C1.98032 19.1616 0.244934 18.0662 0.244934 16.7C0.244934 15.3339 1.91878 14.2385 2.2634 13.0077C2.60801 11.7769 1.72186 9.89386 2.38647 8.76155C3.05109 7.62924 5.06955 7.4077 6.00493 6.46001C6.94032 5.51232 7.08801 3.50617 8.24493 2.84155C9.40186 2.17694 11.1988 3.06309 12.4911 2.71847C13.7834 2.37386 14.8788 0.700012 16.2449 0.700012C17.6111 0.700012 18.7065 2.37386 19.9988 2.71847C21.2911 3.06309 23.1126 2.17694 24.2449 2.84155C25.3772 3.50617 25.5372 5.52463 26.4849 6.46001C27.4326 7.3954 29.4388 7.54309 30.1034 8.70001C30.768 9.85694 29.8819 11.6539 30.2265 12.9462C30.5711 14.2385 32.2449 15.3339 32.2449 16.7Z" fill="#4691AE"/>
<path d="M16.2449 27.325C22.113 27.325 26.8699 22.568 26.8699 16.7C26.8699 10.832 22.113 6.07501 16.2449 6.07501C10.3769 6.07501 5.61993 10.832 5.61993 16.7C5.61993 22.568 10.3769 27.325 16.2449 27.325Z" fill="#275061"/>
<path d="M14.96 21L11.504 12.54H13.07L15.752 19.47L18.434 12.54H20L16.544 21H14.96Z" fill="white"/>
</svg>
